<?xml version="1.0" encoding="UTF-8" standalone="no"?>
<!-- Created with Inkscape (http://www.inkscape.org/) -->

<svg
   xmlns:dc="http://purl.org/dc/elements/1.1/"
   xmlns:cc="http://creativecommons.org/ns#"
   xmlns:rdf="http://www.w3.org/1999/02/22-rdf-syntax-ns#"
   xmlns:svg="http://www.w3.org/2000/svg"
   xmlns="http://www.w3.org/2000/svg"
   xmlns:xlink="http://www.w3.org/1999/xlink"
   xmlns:sodipodi="http://sodipodi.sourceforge.net/DTD/sodipodi-0.dtd"
   xmlns:inkscape="http://www.inkscape.org/namespaces/inkscape"
   width="141.60143mm"
   height="122.84469mm"
   viewBox="0 0 141.60143 122.84469"
   version="1.1"
   id="svg8"
   inkscape:version="0.92.1 r15371"
   sodipodi:docname="kubernix.svg">
  <defs
     id="defs2">
    <linearGradient
       id="linearGradient5562"
       inkscape:collect="always">
      <stop
         id="stop5564"
         offset="0"
         style="stop-color:#699ad7;stop-opacity:1" />
      <stop
         style="stop-color:#7eb1dd;stop-opacity:1"
         offset="0.24345198"
         id="stop5566" />
      <stop
         id="stop5568"
         offset="1"
         style="stop-color:#7ebae4;stop-opacity:1" />
    </linearGradient>
    <linearGradient
       id="linearGradient5053"
       inkscape:collect="always">
      <stop
         id="stop5055"
         offset="0"
         style="stop-color:#415e9a;stop-opacity:1" />
      <stop
         style="stop-color:#4a6baf;stop-opacity:1"
         offset="0.23168644"
         id="stop5057" />
      <stop
         id="stop5059"
         offset="1"
         style="stop-color:#5277c3;stop-opacity:1" />
    </linearGradient>
    <linearGradient
       inkscape:collect="always"
       id="linearGradient5960">
      <stop
         style="stop-color:#637ddf;stop-opacity:1"
         offset="0"
         id="stop5962" />
      <stop
         id="stop5964"
         offset="0.23168644"
         style="stop-color:#649afa;stop-opacity:1" />
      <stop
         style="stop-color:#719efa;stop-opacity:1"
         offset="1"
         id="stop5966" />
    </linearGradient>
    <linearGradient
       id="linearGradient5867"
       inkscape:collect="always">
      <stop
         id="stop5869"
         offset="0"
         style="stop-color:#7363df;stop-opacity:1" />
      <stop
         style="stop-color:#6478fa;stop-opacity:1"
         offset="0.23168644"
         id="stop5871" />
      <stop
         id="stop5873"
         offset="1"
         style="stop-color:#719efa;stop-opacity:1" />
    </linearGradient>
    <linearGradient
       inkscape:collect="always"
       xlink:href="#linearGradient5960"
       id="linearGradient5855"
       gradientUnits="userSpaceOnUse"
       gradientTransform="translate(983.36076,601.38885)"
       x1="213.95642"
       y1="338.62445"
       x2="282.26105"
       y2="515.97058" />
    <linearGradient
       inkscape:collect="always"
       xlink:href="#linearGradient5867"
       id="linearGradient5855-8"
       gradientUnits="userSpaceOnUse"
       gradientTransform="translate(-197.75174,-337.1451)"
       x1="213.95642"
       y1="338.62445"
       x2="282.26105"
       y2="515.97058" />
    <linearGradient
       inkscape:collect="always"
       xlink:href="#linearGradient5960"
       id="linearGradient4544"
       gradientUnits="userSpaceOnUse"
       gradientTransform="translate(983.36076,601.38885)"
       x1="-775.20807"
       y1="102.74675"
       x2="-702.75317"
       y2="247.58188" />
    <clipPath
       clipPathUnits="userSpaceOnUse"
       id="clipPath4501">
      <circle
         style="color:#000000;clip-rule:nonzero;display:inline;overflow:visible;visibility:visible;opacity:1;isolation:auto;mix-blend-mode:normal;color-interpolation:sRGB;color-interpolation-filters:linearRGB;solid-color:#000000;solid-opacity:1;fill:#adadad;fill-opacity:1;fill-rule:evenodd;stroke:none;stroke-width:3;stroke-linecap:butt;stroke-linejoin:round;stroke-miterlimit:4;stroke-dasharray:none;stroke-dashoffset:0;stroke-opacity:1;marker:none;color-rendering:auto;image-rendering:auto;shape-rendering:auto;text-rendering:auto;enable-background:accumulate"
         id="circle4503"
         cx="335.13995"
         cy="686.09473"
         r="241.06563" />
    </clipPath>
    <clipPath
       clipPathUnits="userSpaceOnUse"
       id="clipPath5410">
      <circle
         style="color:#000000;clip-rule:nonzero;display:inline;overflow:visible;visibility:visible;opacity:1;isolation:auto;mix-blend-mode:normal;color-interpolation:sRGB;color-interpolation-filters:linearRGB;solid-color:#000000;solid-opacity:1;fill:#ffffff;fill-opacity:1;fill-rule:evenodd;stroke:none;stroke-width:3;stroke-linecap:butt;stroke-linejoin:round;stroke-miterlimit:4;stroke-dasharray:none;stroke-dashoffset:0;stroke-opacity:1;marker:none;color-rendering:auto;image-rendering:auto;shape-rendering:auto;text-rendering:auto;enable-background:accumulate"
         id="circle5412"
         cx="335.98114"
         cy="340.98975"
         r="241.13741" />
    </clipPath>
    <linearGradient
       y2="937.71399"
       x2="-496.29703"
       y1="782.33563"
       x1="-584.19934"
       gradientTransform="translate(864.55062,-2197.497)"
       gradientUnits="userSpaceOnUse"
       id="linearGradient5137"
       xlink:href="#linearGradient5053"
       inkscape:collect="always" />
    <linearGradient
       y2="506.18814"
       x2="290.08701"
       y1="351.41116"
       x1="200.59668"
       gradientTransform="translate(70.505061,-1761.3076)"
       gradientUnits="userSpaceOnUse"
       id="linearGradient5162"
       xlink:href="#linearGradient5562"
       inkscape:collect="always" />
    <linearGradient
       inkscape:collect="always"
       xlink:href="#linearGradient5562"
       id="linearGradient4982"
       gradientUnits="userSpaceOnUse"
       gradientTransform="translate(70.650339,-1055.1511)"
       x1="200.59668"
       y1="351.41116"
       x2="290.08701"
       y2="506.18814" />
    <linearGradient
       inkscape:collect="always"
       xlink:href="#linearGradient5053"
       id="linearGradient4984"
       gradientUnits="userSpaceOnUse"
       gradientTransform="translate(864.69589,-1491.3405)"
       x1="-584.19934"
       y1="782.33563"
       x2="-496.29703"
       y2="937.71399" />
  </defs>
  <sodipodi:namedview
     id="base"
     pagecolor="#ffffff"
     bordercolor="#666666"
     borderopacity="1.0"
     inkscape:pageopacity="0.0"
     inkscape:pageshadow="2"
     inkscape:zoom="1.4"
     inkscape:cx="248.55486"
     inkscape:cy="85.098473"
     inkscape:document-units="mm"
     inkscape:current-layer="layer1"
     showgrid="false"
     fit-margin-top="0"
     fit-margin-left="0"
     fit-margin-right="0"
     fit-margin-bottom="0"
     inkscape:window-width="2560"
     inkscape:window-height="1440"
     inkscape:window-x="0"
     inkscape:window-y="0"
     inkscape:window-maximized="0" />
  <metadata
     id="metadata5">
    <rdf:RDF>
      <cc:Work
         rdf:about="">
        <dc:format>image/svg+xml</dc:format>
        <dc:type
           rdf:resource="http://purl.org/dc/dcmitype/StillImage" />
        <dc:title></dc:title>
      </cc:Work>
    </rdf:RDF>
  </metadata>
  <g
     inkscape:label="Layer 1"
     inkscape:groupmode="layer"
     id="layer1"
     transform="translate(-6.3749722,-4.8099107)">
    <g
       id="g4976"
       transform="matrix(0.28222222,0,0,0.28222222,6.3749722,4.8483353)">
      <g
         transform="translate(-23.75651,-24.84972)"
         style="display:none"
         inkscape:label="bg"
         id="layer7">
        <rect
           y="-957.77832"
           x="132.5822"
           height="483.7439"
           width="1543.4283"
           id="rect5389"
           style="color:#000000;clip-rule:nonzero;display:inline;overflow:visible;visibility:visible;opacity:1;isolation:auto;mix-blend-mode:normal;color-interpolation:sRGB;color-interpolation-filters:linearRGB;solid-color:#000000;solid-opacity:1;fill:#ffffff;fill-opacity:1;fill-rule:evenodd;stroke:none;stroke-width:3;stroke-linecap:butt;stroke-linejoin:round;stroke-miterlimit:4;stroke-dasharray:none;stroke-dashoffset:0;stroke-opacity:1;marker:none;color-rendering:auto;image-rendering:auto;shape-rendering:auto;text-rendering:auto;enable-background:accumulate"
           transform="translate(-132.5822,958.04022)" />
      </g>
      <g
         transform="translate(-156.33871,933.1905)"
         style="display:none"
         inkscape:label="logo-guide"
         id="layer6">
        <rect
           inkscape:export-ydpi="22.07"
           inkscape:export-xdpi="22.07"
           inkscape:export-filename="/home/tim/dev/nix/homepage/logo/nix-wiki.png"
           style="color:#000000;clip-rule:nonzero;display:inline;overflow:visible;visibility:visible;opacity:1;isolation:auto;mix-blend-mode:normal;color-interpolation:sRGB;color-interpolation-filters:linearRGB;solid-color:#000000;solid-opacity:1;fill:#5c201e;fill-opacity:1;fill-rule:evenodd;stroke:none;stroke-width:3;stroke-linecap:butt;stroke-linejoin:round;stroke-miterlimit:4;stroke-dasharray:none;stroke-dashoffset:0;stroke-opacity:1;marker:none;color-rendering:auto;image-rendering:auto;shape-rendering:auto;text-rendering:auto;enable-background:accumulate"
           id="rect5379"
           width="550.41602"
           height="484.30399"
           x="132.65129"
           y="-958.02759" />
        <rect
           inkscape:export-ydpi="212.2"
           inkscape:export-xdpi="212.2"
           inkscape:export-filename="/home/tim/dev/nix/homepage/logo/nixos-logo-only-hires-print.png"
           y="-933.02759"
           x="156.12303"
           height="434.30405"
           width="501.94415"
           id="rect5372"
           style="color:#000000;clip-rule:nonzero;display:inline;overflow:visible;visibility:visible;opacity:1;isolation:auto;mix-blend-mode:normal;color-interpolation:sRGB;color-interpolation-filters:linearRGB;solid-color:#000000;solid-opacity:1;fill:#c24a46;fill-opacity:1;fill-rule:evenodd;stroke:none;stroke-width:3;stroke-linecap:butt;stroke-linejoin:round;stroke-miterlimit:4;stroke-dasharray:none;stroke-dashoffset:0;stroke-opacity:1;marker:none;color-rendering:auto;image-rendering:auto;shape-rendering:auto;text-rendering:auto;enable-background:accumulate" />
        <rect
           y="-958.04022"
           x="658.02826"
           height="24.939611"
           width="24.939611"
           id="rect5381"
           style="color:#000000;clip-rule:nonzero;display:inline;overflow:visible;visibility:visible;opacity:1;isolation:auto;mix-blend-mode:normal;color-interpolation:sRGB;color-interpolation-filters:linearRGB;solid-color:#000000;solid-opacity:1;fill:#d98d8a;fill-opacity:1;fill-rule:evenodd;stroke:none;stroke-width:3;stroke-linecap:butt;stroke-linejoin:round;stroke-miterlimit:4;stroke-dasharray:none;stroke-dashoffset:0;stroke-opacity:1;marker:none;color-rendering:auto;image-rendering:auto;shape-rendering:auto;text-rendering:auto;enable-background:accumulate" />
      </g>
      <g
         transform="translate(-156.33871,933.1905)"
         style="display:inline"
         id="layer1-5"
         inkscape:label="print-logo">
        <path
           sodipodi:nodetypes="cccccccccc"
           inkscape:connector-curvature="0"
           id="path4861"
           d="m 309.40365,-710.2521 122.19683,211.6751 -56.15706,0.5268 -32.6236,-56.8692 -32.85645,56.5653 -27.90237,-0.011 -14.29086,-24.6896 46.81047,-80.4902 -33.22946,-57.8256 z"
           style="color:#000000;clip-rule:nonzero;display:inline;overflow:visible;visibility:visible;opacity:1;isolation:auto;mix-blend-mode:normal;color-interpolation:sRGB;color-interpolation-filters:linearRGB;solid-color:#000000;solid-opacity:1;fill:#5277c3;fill-opacity:1;fill-rule:evenodd;stroke:none;stroke-width:3;stroke-linecap:butt;stroke-linejoin:round;stroke-miterlimit:4;stroke-dasharray:none;stroke-dashoffset:0;stroke-opacity:1;color-rendering:auto;image-rendering:auto;shape-rendering:auto;text-rendering:auto;enable-background:accumulate" />
        <path
           sodipodi:nodetypes="cccccccccc"
           inkscape:connector-curvature="0"
           id="use4863"
           d="m 353.50926,-797.4433 -122.21756,211.6631 -28.53477,-48.37 32.93839,-56.6875 -65.41521,-0.1719 -13.9414,-24.1698 14.23637,-24.721 93.11177,0.2939 33.46371,-57.6903 z"
           style="color:#000000;clip-rule:nonzero;display:inline;overflow:visible;visibility:visible;opacity:1;isolation:auto;mix-blend-mode:normal;color-interpolation:sRGB;color-interpolation-filters:linearRGB;solid-color:#000000;solid-opacity:1;fill:#7ebae4;fill-opacity:1;fill-rule:evenodd;stroke:none;stroke-width:3;stroke-linecap:butt;stroke-linejoin:round;stroke-miterlimit:4;stroke-dasharray:none;stroke-dashoffset:0;stroke-opacity:1;color-rendering:auto;image-rendering:auto;shape-rendering:auto;text-rendering:auto;enable-background:accumulate" />
        <path
           sodipodi:nodetypes="cccccccccc"
           inkscape:connector-curvature="0"
           id="use4865"
           d="m 362.88537,-628.243 244.41439,0.012 -27.62229,48.8968 -65.56199,-0.1817 32.55876,56.7371 -13.96098,24.1585 -28.52722,0.032 -46.3013,-80.7841 -66.69317,-0.1353 z"
           style="color:#000000;clip-rule:nonzero;display:inline;overflow:visible;visibility:visible;opacity:1;isolation:auto;mix-blend-mode:normal;color-interpolation:sRGB;color-interpolation-filters:linearRGB;solid-color:#000000;solid-opacity:1;fill:#7ebae4;fill-opacity:1;fill-rule:evenodd;stroke:none;stroke-width:3;stroke-linecap:butt;stroke-linejoin:round;stroke-miterlimit:4;stroke-dasharray:none;stroke-dashoffset:0;stroke-opacity:1;color-rendering:auto;image-rendering:auto;shape-rendering:auto;text-rendering:auto;enable-background:accumulate" />
        <path
           sodipodi:nodetypes="cccccccccc"
           inkscape:connector-curvature="0"
           id="use4867"
           d="m 505.14318,-720.9886 -122.19683,-211.6751 56.15706,-0.5268 32.6236,56.8692 32.85645,-56.5653 27.90237,0.011 14.29086,24.6896 -46.81047,80.4902 33.22946,57.8256 z"
           style="color:#000000;clip-rule:nonzero;display:inline;overflow:visible;visibility:visible;opacity:1;isolation:auto;mix-blend-mode:normal;color-interpolation:sRGB;color-interpolation-filters:linearRGB;solid-color:#000000;solid-opacity:1;fill:#7ebae4;fill-opacity:1;fill-rule:evenodd;stroke:none;stroke-width:3;stroke-linecap:butt;stroke-linejoin:round;stroke-miterlimit:4;stroke-dasharray:none;stroke-dashoffset:0;stroke-opacity:1;color-rendering:auto;image-rendering:auto;shape-rendering:auto;text-rendering:auto;enable-background:accumulate" />
        <path
           style="color:#000000;clip-rule:nonzero;display:inline;overflow:visible;visibility:visible;opacity:1;isolation:auto;mix-blend-mode:normal;color-interpolation:sRGB;color-interpolation-filters:linearRGB;solid-color:#000000;solid-opacity:1;fill:#5277c3;fill-opacity:1;fill-rule:evenodd;stroke:none;stroke-width:3;stroke-linecap:butt;stroke-linejoin:round;stroke-miterlimit:4;stroke-dasharray:none;stroke-dashoffset:0;stroke-opacity:1;color-rendering:auto;image-rendering:auto;shape-rendering:auto;text-rendering:auto;enable-background:accumulate"
           d="m 309.40365,-710.2521 122.19683,211.6751 -56.15706,0.5268 -32.6236,-56.8692 -32.85645,56.5653 -27.90237,-0.011 -14.29086,-24.6896 46.81047,-80.4902 -33.22946,-57.8256 z"
           id="path4873"
           inkscape:connector-curvature="0"
           sodipodi:nodetypes="cccccccccc" />
        <path
           style="color:#000000;clip-rule:nonzero;display:inline;overflow:visible;visibility:visible;opacity:1;isolation:auto;mix-blend-mode:normal;color-interpolation:sRGB;color-interpolation-filters:linearRGB;solid-color:#000000;solid-opacity:1;fill:#5277c3;fill-opacity:1;fill-rule:evenodd;stroke:none;stroke-width:3;stroke-linecap:butt;stroke-linejoin:round;stroke-miterlimit:4;stroke-dasharray:none;stroke-dashoffset:0;stroke-opacity:1;color-rendering:auto;image-rendering:auto;shape-rendering:auto;text-rendering:auto;enable-background:accumulate"
           d="m 451.3364,-803.53264 -244.4144,-0.012 27.62229,-48.89685 65.56199,0.18175 -32.55875,-56.73717 13.96097,-24.15851 28.52722,-0.0315 46.3013,80.78414 66.69317,0.13524 z"
           id="use4875"
           inkscape:connector-curvature="0"
           sodipodi:nodetypes="cccccccccc" />
        <path
           style="color:#000000;clip-rule:nonzero;display:inline;overflow:visible;visibility:visible;opacity:1;isolation:auto;mix-blend-mode:normal;color-interpolation:sRGB;color-interpolation-filters:linearRGB;solid-color:#000000;solid-opacity:1;fill:#5277c3;fill-opacity:1;fill-rule:evenodd;stroke:none;stroke-width:3;stroke-linecap:butt;stroke-linejoin:round;stroke-miterlimit:4;stroke-dasharray:none;stroke-dashoffset:0;stroke-opacity:1;color-rendering:auto;image-rendering:auto;shape-rendering:auto;text-rendering:auto;enable-background:accumulate"
           d="m 460.87178,-633.8425 122.21757,-211.66304 28.53477,48.37003 -32.93839,56.68751 65.4152,0.1718 13.9414,24.1698 -14.23636,24.7211 -93.11177,-0.294 -33.46371,57.6904 z"
           id="use4877"
           inkscape:connector-curvature="0"
           sodipodi:nodetypes="cccccccccc" />
        <g
           transform="translate(72.039038,-1799.4476)"
           style="display:none"
           inkscape:label="guides"
           id="layer2">
          <path
             sodipodi:type="star"
             style="color:#000000;display:inline;overflow:visible;visibility:visible;opacity:0.23600003;fill:#4e4d52;fill-opacity:1;fill-rule:nonzero;stroke:none;stroke-width:3;stroke-linecap:butt;stroke-linejoin:round;stroke-miterlimit:4;stroke-dasharray:none;stroke-dashoffset:0;stroke-opacity:1;marker:none;enable-background:accumulate"
             id="path6032"
             sodipodi:sides="6"
             sodipodi:cx="335.17407"
             sodipodi:cy="377.47382"
             sodipodi:r1="250.86446"
             sodipodi:r2="217.25499"
             sodipodi:arg1="1.0471976"
             sodipodi:arg2="1.5707963"
             inkscape:flatsided="true"
             inkscape:rounded="0"
             inkscape:randomized="0"
             d="M 460.60629,594.72881 209.74183,594.7288 84.309616,377.4738 209.74185,160.21882 l 250.86446,1e-5 125.43222,217.255 z" />
          <path
             d="m 385.59154,773.06721 -100.83495,0 -50.41747,-87.32564 50.41748,-87.32563 100.83495,10e-6 50.41748,87.32563 z"
             inkscape:randomized="0"
             inkscape:rounded="0"
             inkscape:flatsided="true"
             sodipodi:arg2="1.5707963"
             sodipodi:arg1="1.0471976"
             sodipodi:r2="87.32563"
             sodipodi:r1="100.83495"
             sodipodi:cy="685.74158"
             sodipodi:cx="335.17407"
             sodipodi:sides="6"
             id="path5875"
             style="color:#000000;display:inline;overflow:visible;visibility:visible;opacity:1;fill:#4e4d52;fill-opacity:1;fill-rule:nonzero;stroke:none;stroke-width:3;stroke-linecap:butt;stroke-linejoin:round;stroke-miterlimit:4;stroke-dasharray:none;stroke-dashoffset:0;stroke-opacity:1;marker:none;enable-background:accumulate"
             sodipodi:type="star"
             transform="translate(0,-308.26772)" />
          <path
             style="fill:url(#linearGradient5855);fill-opacity:1;fill-rule:evenodd;stroke:none;stroke-width:3;stroke-linecap:butt;stroke-linejoin:round;stroke-miterlimit:4;stroke-dasharray:none;stroke-opacity:1"
             d="m 1216.5591,938.53395 123.0545,228.14035 -42.6807,-1.2616 -43.4823,-79.7725 -39.6506,80.3267 -32.6875,-19.7984 53.4737,-100.2848 -37.1157,-73.88955 z"
             id="path5851"
             inkscape:connector-curvature="0"
             sodipodi:nodetypes="ccccccccc"
             transform="translate(0,-308.26772)" />
          <rect
             transform="rotate(-30)"
             y="446.17056"
             x="-34.74221"
             height="226.22897"
             width="48.834862"
             id="rect5884"
             style="color:#000000;clip-rule:nonzero;display:inline;overflow:visible;visibility:visible;opacity:0.41499999;isolation:auto;mix-blend-mode:normal;color-interpolation:sRGB;color-interpolation-filters:linearRGB;solid-color:#000000;solid-opacity:1;fill:#c53a3a;fill-opacity:1;fill-rule:nonzero;stroke:none;stroke-width:3;stroke-linecap:butt;stroke-linejoin:round;stroke-miterlimit:4;stroke-dasharray:none;stroke-dashoffset:0;stroke-opacity:1;marker:none;color-rendering:auto;image-rendering:auto;shape-rendering:auto;text-rendering:auto;enable-background:accumulate" />
          <path
             d="m 251.98568,878.63831 -14.02447,24.29109 h -28.04894 l -14.02447,-24.29109 14.02447,-24.2911 h 28.04894 z"
             inkscape:randomized="0"
             inkscape:rounded="0"
             inkscape:flatsided="true"
             sodipodi:arg2="0.52359878"
             sodipodi:arg1="0"
             sodipodi:r2="24.291094"
             sodipodi:r1="28.048939"
             sodipodi:cy="878.63831"
             sodipodi:cx="223.93674"
             sodipodi:sides="6"
             id="path3428"
             style="color:#000000;clip-rule:nonzero;display:inline;overflow:visible;visibility:visible;opacity:0.50899999;isolation:auto;mix-blend-mode:normal;color-interpolation:sRGB;color-interpolation-filters:linearRGB;solid-color:#000000;solid-opacity:1;fill:#000000;fill-opacity:1;fill-rule:evenodd;stroke:none;stroke-width:3;stroke-linecap:butt;stroke-linejoin:round;stroke-miterlimit:4;stroke-dasharray:none;stroke-dashoffset:0;stroke-opacity:1;marker:none;color-rendering:auto;image-rendering:auto;shape-rendering:auto;text-rendering:auto;enable-background:accumulate"
             sodipodi:type="star"
             transform="translate(0,-308.26772)" />
          <use
             height="100%"
             width="100%"
             transform="rotate(60,268.29786,489.4515)"
             id="use4252"
             xlink:href="#rect5884"
             y="0"
             x="0" />
          <rect
             transform="rotate(30,575.23539,-154.13386)"
             y="467.07007"
             x="545.71014"
             height="115.12564"
             width="5.3947482"
             id="rect4254"
             style="color:#000000;clip-rule:nonzero;display:inline;overflow:visible;visibility:visible;opacity:1;isolation:auto;mix-blend-mode:normal;color-interpolation:sRGB;color-interpolation-filters:linearRGB;solid-color:#000000;solid-opacity:1;fill:#000000;fill-opacity:0.6507937;fill-rule:evenodd;stroke:none;stroke-width:1px;stroke-linecap:butt;stroke-linejoin:miter;stroke-miterlimit:4;stroke-dasharray:none;stroke-dashoffset:0;stroke-opacity:1;marker:none;color-rendering:auto;image-rendering:auto;shape-rendering:auto;text-rendering:auto;enable-background:accumulate" />
        </g>
      </g>
      <g
         transform="translate(-156.33871,933.1905)"
         style="display:inline;opacity:1"
         inkscape:label="gradient-logo"
         id="layer3">
        <path
           style="opacity:1;fill:url(#linearGradient4982);fill-opacity:1;fill-rule:evenodd;stroke:none;stroke-width:3;stroke-linecap:butt;stroke-linejoin:round;stroke-miterlimit:4;stroke-dasharray:none;stroke-opacity:1"
           d="m 309.54892,-710.38827 122.19683,211.67512 -56.15706,0.5268 -32.6236,-56.8692 -32.85645,56.5653 -27.90237,-0.011 -14.29086,-24.6896 46.81047,-80.4901 -33.22946,-57.8257 z"
           id="path3336-6"
           inkscape:connector-curvature="0"
           sodipodi:nodetypes="cccccccccc" />
        <use
           x="0"
           y="0"
           xlink:href="#path3336-6"
           inkscape:transform-center-x="124.43045"
           inkscape:transform-center-y="151.59082"
           id="use3439-6"
           transform="rotate(60,407.11155,-715.78724)"
           width="100%"
           height="100%" />
        <use
           x="0"
           y="0"
           xlink:href="#path3336-6"
           inkscape:transform-center-x="-168.20651"
           inkscape:transform-center-y="75.573958"
           id="use3445-0"
           transform="rotate(-60,407.31177,-715.70016)"
           width="100%"
           height="100%" />
        <use
           x="0"
           y="0"
           xlink:href="#path3336-6"
           inkscape:transform-center-x="59.669705"
           inkscape:transform-center-y="-139.94592"
           id="use3449-5"
           transform="rotate(180,407.41868,-715.7565)"
           width="100%"
           height="100%" />
        <path
           sodipodi:nodetypes="cccccccccc"
           inkscape:connector-curvature="0"
           id="path4260-0"
           d="m 309.54892,-710.38827 122.19683,211.67512 -56.15706,0.5268 -32.6236,-56.8692 -32.85645,56.5653 -27.90237,-0.011 -14.29086,-24.6896 46.81047,-80.4901 -33.22946,-57.8256 z"
           style="color:#000000;clip-rule:nonzero;display:inline;overflow:visible;visibility:visible;opacity:1;isolation:auto;mix-blend-mode:normal;color-interpolation:sRGB;color-interpolation-filters:linearRGB;solid-color:#000000;solid-opacity:1;fill:url(#linearGradient4984);fill-opacity:1;fill-rule:evenodd;stroke:none;stroke-width:3;stroke-linecap:butt;stroke-linejoin:round;stroke-miterlimit:4;stroke-dasharray:none;stroke-dashoffset:0;stroke-opacity:1;color-rendering:auto;image-rendering:auto;shape-rendering:auto;text-rendering:auto;enable-background:accumulate" />
        <use
           style="display:inline"
           x="0"
           y="0"
           xlink:href="#path4260-0"
           id="use4354-5"
           transform="rotate(120,407.33916,-716.08356)"
           width="100%"
           height="100%" />
        <use
           style="display:inline"
           x="0"
           y="0"
           xlink:href="#path4260-0"
           id="use4362-2"
           transform="rotate(-120,407.28823,-715.86995)"
           width="100%"
           height="100%" />
      </g>
    </g>
    <g
       id="g4738"
       transform="matrix(0.34284307,0,0,0.34284307,33.206836,23.537455)">
      <path
         id="path4732"
         d="m 82.085161,244.93419 c -5.945806,0 -11.56129,-2.64258 -15.36,-7.43226 L 8.9187097,165.65677 C 5.12,160.8671 3.6335484,154.75613 5.12,148.81032 L 25.765161,59.127742 C 27.086452,53.181936 31.050323,48.392258 36.500645,45.749677 L 120.07226,5.7806452 c 2.64258,-1.3212904 5.61548,-1.9819355 8.58838,-1.9819355 2.97291,0 5.94581,0.6606451 8.58839,1.9819355 l 83.57162,39.8038708 c 5.45032,2.642581 9.41419,7.432258 10.73548,13.378065 l 20.64516,89.682579 c 1.32129,5.94581 0,12.05677 -3.79871,16.84645 l -57.80645,71.84516 c -3.79871,4.62452 -9.4142,7.43226 -15.36,7.43226 z"
         inkscape:connector-curvature="0"
         style="fill:#326de6" />
      <path
         id="path4734"
         d="m 128.49548,7.9277419 c 2.31226,0 4.62452,0.4954839 6.77162,1.4864517 l 83.57161,39.8038704 c 4.29419,2.147097 7.59742,6.110968 8.58839,10.735484 l 20.64516,89.682582 c 1.15613,4.78968 0,9.74451 -3.13807,13.54322 l -57.80645,71.84517 c -2.9729,3.79871 -7.59742,5.9458 -12.3871,5.9458 H 82.085161 c -4.789677,0 -9.414193,-2.14709 -12.387097,-5.9458 L 11.891613,163.17935 C 8.9187097,159.38064 7.7625807,154.42581 8.7535484,149.63613 L 29.39871,59.953548 C 30.554839,55.163871 33.692903,51.2 37.987097,49.218064 L 121.55871,9.2490323 c 2.1471,-0.8258065 4.62452,-1.3212904 6.93677,-1.3212904 z m 0,-7.76258061 v 0 c -3.46838,0 -6.93677,0.82580645 -10.24,2.31225811 L 34.683871,42.446452 C 28.077419,45.584516 23.452903,51.365161 21.80129,58.467097 L 1.156129,148.14968 c -1.65161287,7.10193 0,14.36903 4.6245162,20.14967 l 57.8064518,71.84517 c 4.459355,5.61548 11.230968,8.75354 18.332903,8.75354 h 92.65548 c 7.10194,0 13.87355,-3.13806 18.33291,-8.75354 l 57.80645,-71.84517 c 4.62451,-5.61548 6.27613,-13.04774 4.62451,-20.14967 L 234.69419,58.467097 C 233.04258,51.365161 228.41807,45.584516 221.81161,42.446452 L 138.57032,2.4774194 C 135.43226,0.99096774 131.96387,0.16516129 128.49548,0.16516129 Z"
         inkscape:connector-curvature="0"
         style="fill:#ffffff" />
      <path
         id="path4736"
         d="m 212.23226,142.53419 v 0 0 c -0.16516,0 -0.16516,0 0,0 h -0.16516 c -0.16517,0 -0.33033,0 -0.33033,-0.16516 -0.33032,0 -0.66064,-0.16516 -0.99096,-0.16516 -1.15613,-0.16516 -2.1471,-0.33032 -3.13807,-0.33032 -0.49548,0 -0.99097,0 -1.65161,-0.16516 h -0.16516 c -3.46839,-0.33033 -6.27613,-0.66065 -8.91871,-1.48646 -1.15613,-0.49548 -1.48645,-1.15612 -1.81678,-1.81677 0,-0.16516 -0.16516,-0.16516 -0.16516,-0.33032 v 0 l -2.14709,-0.66065 c 0.99096,-7.59742 0.66064,-15.52516 -1.15613,-23.28774 -1.81678,-7.76258 -4.95484,-15.029676 -9.24904,-21.636127 l 1.65162,-1.486452 v -0.330323 c 0,-0.825806 0.16516,-1.651613 0.8258,-2.477419 1.98194,-1.816774 4.45936,-3.303226 7.43226,-5.12 v 0 c 0.49549,-0.330323 0.99097,-0.495484 1.48645,-0.825806 0.99097,-0.495484 1.81678,-0.990968 2.80774,-1.651613 0.16517,-0.165162 0.49549,-0.330323 0.82581,-0.660646 0.16516,-0.165161 0.33033,-0.165161 0.33033,-0.330322 v 0 c 2.31225,-1.981936 2.80774,-5.285161 1.15612,-7.432258 -0.8258,-1.156129 -2.31226,-1.816774 -3.79871,-1.816774 -1.32129,0 -2.47742,0.495483 -3.63355,1.32129 v 0 0 c -0.16516,0.165161 -0.16516,0.165161 -0.33032,0.330323 -0.33032,0.165161 -0.49548,0.495484 -0.8258,0.660645 -0.82581,0.825806 -1.48646,1.486451 -2.1471,2.312258 -0.33032,0.330322 -0.66065,0.825806 -1.15613,1.156129 v 0 c -2.31226,2.477419 -4.45935,4.459355 -6.60645,5.945806 -0.49549,0.330323 -0.99097,0.495484 -1.48645,0.495484 -0.33033,0 -0.66065,0 -0.99097,-0.165161 h -0.33032 v 0 l -1.98194,1.32129 c -2.1471,-2.312258 -4.45935,-4.294193 -6.77161,-6.276129 -9.90968,-7.762581 -21.96645,-12.552258 -34.51871,-13.708387 l -0.16516,-2.147097 C 133.94581,61.44 133.94581,61.44 133.78064,61.274839 c -0.49548,-0.495484 -1.15612,-0.990968 -1.32129,-2.147097 -0.16516,-2.642581 0.16517,-5.615484 0.49549,-8.91871 v -0.165161 c 0,-0.495484 0.16516,-1.156129 0.33032,-1.651613 0.16516,-0.990968 0.33032,-1.981935 0.49548,-3.138065 v -0.990967 -0.495484 0 0 c 0,-2.972903 -2.31225,-5.450323 -5.12,-5.450323 -1.32129,0 -2.64257,0.660646 -3.63354,1.651613 -0.99097,0.990968 -1.48646,2.312258 -1.48646,3.79871 v 0 0 0.330322 0.990968 c 0,1.156129 0.16517,2.147097 0.49549,3.138065 0.16516,0.495484 0.16516,0.990967 0.33032,1.651613 v 0.165161 c 0.33032,3.303226 0.82581,6.276129 0.49549,8.91871 -0.16517,1.156129 -0.82581,1.651612 -1.3213,2.147096 -0.16516,0.165162 -0.16516,0.165162 -0.33032,0.330323 v 0 l -0.16516,2.147097 c -2.9729,0.330322 -5.9458,0.660645 -8.91871,1.32129 -12.71742,2.807742 -23.948385,9.249032 -32.701934,18.498065 l -1.651613,-1.156129 h -0.330322 c -0.330323,0 -0.660645,0.165161 -0.990968,0.165161 -0.495484,0 -0.990968,-0.165161 -1.486452,-0.495484 -2.147096,-1.486452 -4.294193,-3.633548 -6.606451,-6.110968 v 0 C 70.028387,75.47871 69.698064,74.983226 69.202581,74.652903 68.541935,73.827097 67.88129,73.166452 67.055484,72.340645 66.890323,72.175484 66.56,72.010323 66.229677,71.68 66.064516,71.514839 65.899355,71.514839 65.899355,71.349677 v 0 c -0.990968,-0.825806 -2.312258,-1.32129 -3.633549,-1.32129 -1.486451,0 -2.972903,0.660645 -3.798709,1.816774 -1.651613,2.147097 -1.156129,5.450323 1.156129,7.432258 v 0 0 c 0.165161,0 0.165161,0.165162 0.330322,0.165162 0.330323,0.165161 0.495484,0.495483 0.825807,0.660645 0.990968,0.660645 1.816774,1.156129 2.807742,1.651613 0.495484,0.165161 0.990967,0.495484 1.486451,0.825806 v 0 c 2.972904,1.816774 5.450323,3.303226 7.432259,5.12 0.825806,0.825807 0.825806,1.651613 0.825806,2.47742 v 0.330322 0 l 1.651613,1.486452 c -0.330323,0.495484 -0.660645,0.825806 -0.825807,1.32129 -8.258064,13.047741 -11.396129,28.407741 -9.249032,43.602581 l -2.147097,0.66064 c 0,0.16517 -0.165161,0.16517 -0.165161,0.33033 -0.330323,0.66064 -0.825806,1.32129 -1.816774,1.81677 -2.47742,0.82581 -5.450323,1.15613 -8.91871,1.48645 h -0.165161 c -0.495484,0 -1.156129,0 -1.651613,0.16516 -0.990968,0 -1.981936,0.16517 -3.138065,0.33033 -0.330322,0 -0.660645,0.16516 -0.990967,0.16516 -0.165162,0 -0.330323,0 -0.495484,0.16516 v 0 0 c -2.972903,0.66064 -4.789678,3.46839 -4.294194,6.11097 0.495484,2.31225 2.642581,3.79871 5.285162,3.79871 0.495483,0 0.825806,0 1.32129,-0.16516 v 0 0 c 0.165161,0 0.330322,0 0.330322,-0.16517 0.330323,0 0.660646,-0.16516 0.990968,-0.16516 1.156129,-0.33032 1.981936,-0.66064 2.972904,-1.15613 0.495483,-0.16516 0.990967,-0.49548 1.486451,-0.66064 h 0.165161 c 3.138065,-1.15613 5.945807,-2.1471 8.588387,-2.47742 h 0.330323 c 0.990968,0 1.651613,0.49548 2.147097,0.82581 0.165161,0 0.165161,0.16516 0.330322,0.16516 v 0 l 2.312258,-0.33033 c 3.963871,12.22194 11.561291,23.12258 21.636129,31.05033 2.312258,1.81677 4.624517,3.30322 7.101936,4.78967 l -0.990968,2.1471 c 0,0.16516 0.165161,0.16516 0.165161,0.33032 0.330323,0.66065 0.660646,1.48646 0.330323,2.64258 -0.990968,2.47742 -2.477419,4.95484 -4.294194,7.76258 v 0.16517 c -0.330322,0.49548 -0.660645,0.8258 -0.990967,1.32129 -0.660645,0.8258 -1.156129,1.65161 -1.816774,2.64258 -0.165162,0.16516 -0.330323,0.49548 -0.495484,0.8258 0,0.16516 -0.165161,0.33033 -0.165161,0.33033 v 0 0 c -1.321291,2.80774 -0.330323,5.9458 2.147096,7.10193 0.660645,0.33032 1.32129,0.49549 1.981936,0.49549 1.981935,0 3.963871,-1.32129 4.954838,-3.13807 v 0 0 c 0,-0.16516 0.165162,-0.33032 0.165162,-0.33032 0.165161,-0.33032 0.330322,-0.66065 0.495484,-0.82581 0.495483,-1.15613 0.660645,-1.98193 0.990967,-2.9729 0.165162,-0.49549 0.330323,-0.99097 0.495484,-1.48645 v 0 c 1.156126,-3.30323 1.981936,-5.94581 3.468386,-8.25807 0.66065,-0.99097 1.48645,-1.15613 2.1471,-1.48645 0.16516,0 0.16516,0 0.33032,-0.16516 v 0 l 1.15613,-2.1471 c 7.2671,2.80774 15.19484,4.2942 23.12258,4.2942 4.78968,0 9.74452,-0.49549 14.36903,-1.65162 2.97291,-0.66064 5.78065,-1.48645 8.58839,-2.47742 l 0.99097,1.81678 c 0.16516,0 0.16516,0 0.33032,0.16516 0.82581,0.16516 1.48645,0.49548 2.1471,1.48645 1.32129,2.31226 2.31225,5.12 3.46838,8.25807 v 0.16516 c 0.16516,0.49548 0.33033,0.99096 0.49549,1.48645 0.33032,0.99097 0.49548,1.98193 0.99096,2.9729 0.16517,0.33032 0.33033,0.49549 0.49549,0.82581 0,0.16516 0.16516,0.33032 0.16516,0.33032 v 0 0 c 0.99097,1.98194 2.9729,3.13807 4.95484,3.13807 0.66064,0 1.32129,-0.16517 1.98193,-0.49549 1.15613,-0.66064 2.1471,-1.65161 2.47742,-2.9729 0.33033,-1.32129 0.33033,-2.80774 -0.33032,-4.12903 v 0 0 c 0,-0.16517 -0.16516,-0.16517 -0.16516,-0.33033 -0.16516,-0.33032 -0.33032,-0.66064 -0.49548,-0.8258 -0.49549,-0.99097 -1.15613,-1.81678 -1.81678,-2.64258 -0.33032,-0.49549 -0.66064,-0.82581 -0.99097,-1.32129 v -0.16517 c -1.81677,-2.80774 -3.46838,-5.28516 -4.29419,-7.76258 -0.33032,-1.15612 0,-1.81677 0.16516,-2.64258 0,-0.16516 0.16516,-0.16516 0.16516,-0.33032 v 0 l -0.8258,-1.98193 c 8.75354,-5.12 16.1858,-12.3871 21.80129,-21.30581 2.9729,-4.62452 5.28516,-9.74452 6.93677,-14.86452 l 1.98194,0.33033 c 0.16516,0 0.16516,-0.16517 0.33032,-0.16517 0.66065,-0.33032 1.15613,-0.8258 2.1471,-0.8258 h 0.33032 c 2.64258,0.33032 5.45032,1.32129 8.58839,2.47742 h 0.16516 c 0.49548,0.16516 0.99096,0.49548 1.48645,0.66064 0.99097,0.49549 1.81677,0.82581 2.9729,1.15613 0.33032,0 0.66065,0.16516 0.99097,0.16516 0.16516,0 0.33032,0 0.49548,0.16516 v 0 c 0.49549,0.16517 0.82581,0.16517 1.32129,0.16517 2.47742,0 4.62452,-1.65162 5.28517,-3.79871 0,-1.98194 -1.81678,-4.62452 -4.78968,-5.45033 z m -76.46968,-8.0929 -7.2671,3.46839 -7.26709,-3.46839 -1.81678,-7.76258 4.95484,-6.27613 h 8.0929 l 4.95484,6.27613 z m 43.1071,-17.17677 c 1.32129,5.61548 1.65161,11.23096 1.15613,16.68129 l -25.26968,-7.2671 c -2.31226,-0.66064 -3.63355,-2.9729 -3.13807,-5.28516 0.16517,-0.66065 0.49549,-1.32129 0.99097,-1.81678 l 19.98452,-18.00258 c 2.80774,4.62452 4.95484,9.90968 6.27613,15.69033 z M 164.66581,91.664516 143.02968,107.02452 c -1.81678,1.15612 -4.2942,0.8258 -5.78065,-0.99097 -0.49548,-0.49548 -0.66064,-1.15613 -0.8258,-1.81678 l -1.48646,-26.921286 c 11.39613,1.32129 21.80129,6.44129 29.72904,14.369032 z M 116.76903,78.12129 c 1.81678,-0.330322 3.46839,-0.660645 5.28516,-0.990967 l -1.48645,26.425807 c -0.16516,2.31226 -1.98193,4.29419 -4.45935,4.29419 -0.66065,0 -1.48646,-0.16516 -1.98194,-0.49548 L 92.16,91.664516 c 6.771613,-6.771613 15.19484,-11.396129 24.60903,-13.543226 z m -32.536772,23.4529 19.654192,17.5071 c 1.81678,1.48645 1.98194,4.29419 0.49549,6.11097 -0.49549,0.66064 -1.15613,1.15613 -1.98194,1.32129 l -25.6,7.43226 c -0.990968,-11.23097 1.486452,-22.6271 7.432258,-32.37162 z m -4.459355,44.75871 26.260647,-4.45935 c 2.14709,-0.16516 4.12903,1.32129 4.62451,3.46838 0.16517,0.99097 0.16517,1.81678 -0.16516,2.64259 v 0 l -10.07483,24.27871 C 91.169032,166.31742 83.736774,157.23355 79.772903,146.3329 Z M 140.05677,179.2 c -3.79871,0.82581 -7.59742,1.32129 -11.56129,1.32129 -5.78064,0 -11.39612,-0.99097 -16.68129,-2.64258 l 13.04775,-23.61807 c 1.32129,-1.48645 3.46838,-2.14709 5.28516,-1.15612 0.8258,0.49548 1.48645,1.15612 1.98193,1.81677 v 0 l 12.71742,22.95742 c -1.48645,0.49548 -3.13806,0.82581 -4.78968,1.32129 z m 32.20646,-22.95742 c -4.12904,6.60645 -9.57936,11.89161 -15.85549,16.02065 l -10.40516,-24.93936 c -0.49548,-1.98194 0.33032,-4.12903 2.31226,-5.12 0.66064,-0.33032 1.48645,-0.49548 2.31226,-0.49548 l 26.4258,4.45935 c -0.99097,3.63355 -2.64258,6.93678 -4.78967,10.07484 z"
         inkscape:connector-curvature="0"
         style="fill:#ffffff" />
    </g>
  </g>
</svg>
